<svg width="24" height="24" viewBox="0 0 24 24" fill="none" xmlns="http://www.w3.org/2000/svg">
<path d="M4.46032 3.11111C3.71517 3.11111 3.11111 3.71517 3.11111 4.46032V6.20635C3.11111 6.9515 3.71517 7.55556 4.46032 7.55556H6.20635C6.9515 7.55556 7.55556 6.9515 7.55556 6.20635V4.46032C7.55556 3.71517 6.9515 3.11111 6.20635 3.11111H4.46032ZM4.46032 2H6.20635C7.56515 2 8.66667 3.10152 8.66667 4.46032V6.20635C8.66667 7.56515 7.56515 8.66667 6.20635 8.66667H4.46032C3.10152 8.66667 2 7.56515 2 6.20635V4.46032C2 3.10152 3.10152 2 4.46032 2ZM4.46032 15.3333H6.20635C7.56515 15.3333 8.66667 16.4349 8.66667 17.7937V19.5397C8.66667 20.8985 7.56515 22 6.20635 22H4.46032C3.10152 22 2 20.8985 2 19.5397V17.7937C2 16.4349 3.10152 15.3333 4.46032 15.3333ZM4.46032 16.4444C3.71517 16.4444 3.11111 17.0485 3.11111 17.7937V19.5397C3.11111 20.2848 3.71517 20.8889 4.46032 20.8889H6.20635C6.9515 20.8889 7.55556 20.2848 7.55556 19.5397V17.7937C7.55556 17.0485 6.9515 16.4444 6.20635 16.4444H4.46032ZM17.7937 2H19.5397C20.8985 2 22 3.10152 22 4.46032V6.20635C22 7.56515 20.8985 8.66667 19.5397 8.66667H17.7937C16.4349 8.66667 15.3333 7.56515 15.3333 6.20635V4.46032C15.3333 3.10152 16.4349 2 17.7937 2ZM17.7937 3.11111C17.0485 3.11111 16.4444 3.71517 16.4444 4.46032V6.20635C16.4444 6.9515 17.0485 7.55556 17.7937 7.55556H19.5397C20.2848 7.55556 20.8889 6.9515 20.8889 6.20635V4.46032C20.8889 3.71517 20.2848 3.11111 19.5397 3.11111H17.7937ZM13.1111 20.8889V20.3333C13.1111 20.0265 13.3598 19.7778 13.6667 19.7778C13.9735 19.7778 14.2222 20.0265 14.2222 20.3333V20.8889H14.7778C15.0846 20.8889 15.3333 21.1376 15.3333 21.4444C15.3333 21.7513 15.0846 22 14.7778 22H12.5556C12.2487 22 12 21.7513 12 21.4444C12 21.1376 12.2487 20.8889 12.5556 20.8889H13.1111ZM13.1111 10.8889H14.2222V10.3333C14.2222 10.0265 14.471 9.77778 14.7778 9.77778C15.0846 9.77778 15.3333 10.0265 15.3333 10.3333V11.4444C15.3333 11.7513 15.0846 12 14.7778 12H11.4444C11.1376 12 10.8889 11.7513 10.8889 11.4444C10.8889 11.1376 11.1376 10.8889 11.4444 10.8889H12V9.77778H11.4444C11.1376 9.77778 10.8889 9.52905 10.8889 9.22222C10.8889 8.9154 11.1376 8.66667 11.4444 8.66667H12.5556C12.8624 8.66667 13.1111 8.9154 13.1111 9.22222V10.8889ZM19.7778 12V12.5556C19.7778 12.8624 19.529 13.1111 19.2222 13.1111C18.9154 13.1111 18.6667 12.8624 18.6667 12.5556V10.3333C18.6667 10.0265 18.9154 9.77778 19.2222 9.77778C19.529 9.77778 19.7778 10.0265 19.7778 10.3333V10.8889H20.8889V10.3333C20.8889 10.0265 21.1376 9.77778 21.4444 9.77778C21.7513 9.77778 22 10.0265 22 10.3333V11.4444C22 11.7513 21.7513 12 21.4444 12H19.7778ZM13.1111 14.2222H11.4444C11.1376 14.2222 10.8889 13.9735 10.8889 13.6667C10.8889 13.3598 11.1376 13.1111 11.4444 13.1111H13.6667C13.9735 13.1111 14.2222 13.3598 14.2222 13.6667V15.8889C14.2222 16.1957 13.9735 16.4444 13.6667 16.4444H10.3333C10.0265 16.4444 9.77778 16.1957 9.77778 15.8889C9.77778 15.5821 10.0265 15.3333 10.3333 15.3333H13.1111V14.2222ZM4.77778 4.22222H5.88889C6.19571 4.22222 6.44444 4.47095 6.44444 4.77778V5.88889C6.44444 6.19571 6.19571 6.44444 5.88889 6.44444H4.77778C4.47095 6.44444 4.22222 6.19571 4.22222 5.88889V4.77778C4.22222 4.47095 4.47095 4.22222 4.77778 4.22222ZM4.77778 17.5556H5.88889C6.19571 17.5556 6.44444 17.8043 6.44444 18.1111V19.2222C6.44444 19.529 6.19571 19.7778 5.88889 19.7778H4.77778C4.47095 19.7778 4.22222 19.529 4.22222 19.2222V18.1111C4.22222 17.8043 4.47095 17.5556 4.77778 17.5556ZM18.1111 4.22222H19.2222C19.529 4.22222 19.7778 4.47095 19.7778 4.77778V5.88889C19.7778 6.19571 19.529 6.44444 19.2222 6.44444H18.1111C17.8043 6.44444 17.5556 6.19571 17.5556 5.88889V4.77778C17.5556 4.47095 17.8043 4.22222 18.1111 4.22222ZM13.1111 4.22222V3.11111H10.8889V4.77778C10.8889 5.0846 10.6402 5.33333 10.3333 5.33333C10.0265 5.33333 9.77778 5.0846 9.77778 4.77778V2.55556C9.77778 2.24873 10.0265 2 10.3333 2H13.6667C13.9735 2 14.2222 2.24873 14.2222 2.55556V4.77778C14.2222 5.0846 13.9735 5.33333 13.6667 5.33333H12.5556C12.2487 5.33333 12 5.0846 12 4.77778C12 4.47095 12.2487 4.22222 12.5556 4.22222H13.1111ZM10.3333 7.55556C10.0265 7.55556 9.77778 7.30683 9.77778 7C9.77778 6.69318 10.0265 6.44444 10.3333 6.44444H13.6667C13.9735 6.44444 14.2222 6.69318 14.2222 7C14.2222 7.30683 13.9735 7.55556 13.6667 7.55556H10.3333ZM10.8889 18.6667V21.4444C10.8889 21.7513 10.6402 22 10.3333 22C10.0265 22 9.77778 21.7513 9.77778 21.4444V18.1111C9.77778 17.8043 10.0265 17.5556 10.3333 17.5556H13.6667C13.9735 17.5556 14.2222 17.8043 14.2222 18.1111C14.2222 18.4179 13.9735 18.6667 13.6667 18.6667H10.8889ZM8.66667 12H9.22222C9.52905 12 9.77778 12.2487 9.77778 12.5556V13.6667C9.77778 13.9735 9.52905 14.2222 9.22222 14.2222C8.9154 14.2222 8.66667 13.9735 8.66667 13.6667V13.1111H8.11111C7.80429 13.1111 7.55556 12.8624 7.55556 12.5556V10.3333C7.55556 10.0265 7.80429 9.77778 8.11111 9.77778H9.22222C9.52905 9.77778 9.77778 10.0265 9.77778 10.3333C9.77778 10.6402 9.52905 10.8889 9.22222 10.8889H8.66667V12ZM5.33333 10.8889H4.77778C4.47095 10.8889 4.22222 10.6402 4.22222 10.3333C4.22222 10.0265 4.47095 9.77778 4.77778 9.77778H5.88889C6.19571 9.77778 6.44444 10.0265 6.44444 10.3333V13.6667C6.44444 13.9735 6.19571 14.2222 5.88889 14.2222C5.58206 14.2222 5.33333 13.9735 5.33333 13.6667V10.8889ZM16.4444 10.3333C16.4444 10.0265 16.6932 9.77778 17 9.77778C17.3068 9.77778 17.5556 10.0265 17.5556 10.3333V12.5556C17.5556 12.8624 17.3068 13.1111 17 13.1111C16.6932 13.1111 16.4444 12.8624 16.4444 12.5556V10.3333ZM20.8889 14.2222V13.6667C20.8889 13.3598 21.1376 13.1111 21.4444 13.1111C21.7513 13.1111 22 13.3598 22 13.6667V14.7778C22 15.0846 21.7513 15.3333 21.4444 15.3333H18.1111C17.8043 15.3333 17.5556 15.0846 17.5556 14.7778C17.5556 14.471 17.8043 14.2222 18.1111 14.2222H20.8889ZM16.4444 16.4444H19.2222C19.529 16.4444 19.7778 16.6932 19.7778 17C19.7778 17.3068 19.529 17.5556 19.2222 17.5556H15.8889C15.5821 17.5556 15.3333 17.3068 15.3333 17V14.7778C15.3333 14.471 15.5821 14.2222 15.8889 14.2222C16.1957 14.2222 16.4444 14.471 16.4444 14.7778V16.4444ZM20.8889 20.8889V17C20.8889 16.6932 21.1376 16.4444 21.4444 16.4444C21.7513 16.4444 22 16.6932 22 17V21.4444C22 21.7513 21.7513 22 21.4444 22H17C16.6932 22 16.4444 21.7513 16.4444 21.4444C16.4444 21.1376 16.6932 20.8889 17 20.8889H20.8889ZM15.8889 19.7778C15.5821 19.7778 15.3333 19.529 15.3333 19.2222C15.3333 18.9154 15.5821 18.6667 15.8889 18.6667H19.2222C19.529 18.6667 19.7778 18.9154 19.7778 19.2222C19.7778 19.529 19.529 19.7778 19.2222 19.7778H15.8889ZM3.11111 13.1111H3.66667C3.97349 13.1111 4.22222 13.3598 4.22222 13.6667C4.22222 13.9735 3.97349 14.2222 3.66667 14.2222H2.55556C2.24873 14.2222 2 13.9735 2 13.6667V10.3333C2 10.0265 2.24873 9.77778 2.55556 9.77778C2.86238 9.77778 3.11111 10.0265 3.11111 10.3333V13.1111Z" fill="black"/>
</svg>
