<svg width="32" height="32" viewBox="0 0 32 32" fill="none" xmlns="http://www.w3.org/2000/svg">
<rect width="32" height="32" rx="16" fill="#121517" fill-opacity="0.2"/>
<path d="M11.6094 16H22C22.1768 16 22.3464 16.0703 22.4714 16.1953C22.5964 16.3203 22.6667 16.4899 22.6667 16.6667C22.6667 16.8435 22.5964 17.0131 22.4714 17.1381C22.3464 17.2631 22.1768 17.3334 22 17.3334H11.6094L15.138 20.862C15.2595 20.9878 15.3267 21.1562 15.3251 21.331C15.3236 21.5058 15.2535 21.673 15.1299 21.7966C15.0063 21.9202 14.8391 21.9903 14.6643 21.9918C14.4895 21.9933 14.3211 21.9261 14.1954 21.8047L9.52869 17.138C9.40371 17.013 9.3335 16.8435 9.3335 16.6667C9.3335 16.4899 9.40371 16.3204 9.52869 16.1954L14.1954 11.5287C14.3211 11.4073 14.4895 11.3401 14.6643 11.3416C14.8391 11.3431 15.0063 11.4132 15.1299 11.5368C15.2535 11.6604 15.3236 11.8276 15.3251 12.0024C15.3267 12.1772 15.2595 12.3456 15.138 12.4714L11.6094 16Z" fill="white"/>
</svg>
